
<svg version="1.0" xmlns="http://www.w3.org/2000/svg"
 width="591.000000pt" height="640.000000pt" viewBox="0 0 591.000000 640.000000"
 preserveAspectRatio="xMidYMid meet">
<g transform="translate(0.000000,640.000000) scale(0.100000,-0.100000)"
fill="#000000" stroke="none">
<path d="M750 6390 c28 -5 31 -8 17 -14 -9 -5 -29 -5 -45 -1 -35 9 -20 -6 21
-22 l32 -11 -37 -1 c-21 -1 -38 -5 -38 -10 0 -5 -13 -13 -28 -19 -28 -10 -41
-42 -16 -42 6 0 14 -7 18 -15 3 -8 1 -15 -4 -15 -6 0 -10 -6 -10 -14 0 -8 -12
-19 -27 -25 -25 -9 -23 -10 17 -6 40 5 43 4 24 -7 -20 -12 -20 -14 -7 -27 14
-13 13 -16 -8 -24 l-24 -10 25 -6 25 -7 -28 -7 c-15 -4 -25 -12 -22 -17 3 -6
0 -10 -7 -11 -7 -1 -2 -5 12 -9 l25 -8 -25 -1 c-14 -1 -32 -6 -40 -11 -12 -8
-11 -10 8 -10 12 0 22 -4 22 -10 0 -5 -5 -10 -11 -10 -6 0 -17 -6 -25 -14 -12
-13 -12 -15 4 -19 10 -3 5 -5 -13 -6 -28 -2 -29 -3 -7 -11 22 -9 22 -10 3 -29
-11 -11 -32 -27 -48 -35 l-28 -15 45 -1 c42 -2 43 -2 17 -12 -15 -5 -25 -14
-21 -19 3 -5 -5 -9 -18 -9 -18 0 -20 -2 -8 -10 12 -7 12 -10 1 -10 -7 0 -11
-6 -8 -14 6 -15 -13 -27 -41 -25 -10 1 -7 4 8 9 l25 8 -27 1 c-28 1 -32 7 -30
50 1 22 -1 23 -43 18 -25 -4 -45 -3 -45 2 0 4 -34 8 -75 7 -51 -1 -76 3 -80
12 -2 7 4 12 18 13 19 1 20 2 3 6 -26 7 -49 30 -37 38 6 3 23 3 38 0 23 -4 24
-4 8 4 -11 5 -39 10 -63 10 -26 1 -41 5 -37 11 3 6 17 10 31 10 15 0 23 4 19
10 -4 6 -16 8 -28 5 -12 -2 -16 -2 -9 1 24 11 11 24 -25 25 l-38 2 40 7 c37 7
37 7 10 10 -30 2 -30 2 -5 10 l25 8 -28 1 c-16 1 -26 5 -22 11 3 6 -2 11 -12
11 -10 1 -4 5 12 9 l30 8 -35 2 c-19 1 -29 4 -23 7 23 9 -14 35 -39 28 -18 -5
-20 -4 -8 4 13 9 12 12 -5 25 -12 9 -15 15 -7 16 15 0 6 20 -9 20 -5 0 -9
-277 -9 -720 0 -396 4 -720 9 -720 4 0 7 -32 6 -70 -2 -65 0 -71 21 -76 28 -7
25 -28 -9 -64 l-27 -28 0 -2266 0 -2266 2955 0 2955 0 0 3200 0 3200 -767 -2
c-717 -3 -766 -4 -769 -20 -1 -10 -10 -25 -19 -34 -13 -14 -14 -19 -3 -25 10
-7 10 -9 -2 -9 -13 0 -13 -1 0 -10 11 -7 11 -10 2 -10 -7 0 -10 -4 -7 -10 3
-5 3 -16 -1 -22 -11 -18 -12 -48 -2 -48 5 0 0 -10 -12 -22 -15 -16 -17 -24 -8
-30 9 -5 4 -8 -12 -8 -20 0 -22 -2 -10 -10 13 -9 13 -10 0 -10 -11 0 -12 -2
-3 -8 14 -9 8 -65 -8 -70 -5 -2 -7 -8 -3 -13 3 -5 0 -9 -6 -9 -6 0 -8 -11 -6
-25 3 -13 1 -27 -4 -30 -5 -3 -7 -11 -4 -19 3 -7 0 -24 -5 -39 -8 -20 -7 -30
5 -42 13 -12 13 -15 1 -15 -7 0 -14 -7 -14 -15 0 -8 5 -15 10 -15 6 0 3 -8 -7
-19 -9 -10 -14 -24 -11 -32 9 -25 13 -109 6 -109 -5 0 -7 -12 -6 -27 1 -16 -6
-34 -14 -40 -14 -11 -14 -14 -2 -22 12 -8 11 -13 -10 -30 -22 -18 -23 -20 -5
-27 15 -6 14 -9 -14 -20 -42 -18 -40 -19 -40 16 0 20 -5 30 -15 30 -27 0 -16
17 18 28 l32 10 -40 3 c-22 1 -48 1 -58 1 -10 -1 -15 3 -12 8 3 6 18 10 33 10
21 0 24 2 12 10 -8 5 -10 10 -5 10 6 0 3 5 -5 10 -13 9 -13 11 0 20 8 5 10 10
4 10 -7 0 -11 8 -10 17 1 12 -9 19 -28 23 -22 4 -30 11 -31 30 -1 14 3 28 9
32 8 5 7 8 -1 8 -7 0 -13 9 -13 20 0 11 7 20 15 20 19 0 20 26 1 33 -14 5 -42
81 -38 100 1 4 -2 7 -8 7 -5 0 -7 7 -4 15 4 8 1 22 -5 29 -10 11 -9 16 4 23
15 9 15 11 1 22 -19 16 -21 51 -4 51 6 0 4 6 -7 13 -10 8 -15 19 -11 25 4 7 3
12 -2 12 -5 0 -8 14 -7 30 1 17 -1 30 -6 30 -7 0 -7 41 0 108 0 6 8 12 16 12
8 0 15 9 15 20 0 11 -5 20 -11 20 -8 0 -8 5 1 15 11 13 -172 15 -1636 14 -907
-1 -1633 -5 -1614 -9z m7 -196 c-3 -3 -12 -4 -19 -1 -8 3 -5 6 6 6 11 1 17 -2
13 -5z m-335 -373 c-8 -4 -13 -12 -12 -17 0 -5 -10 -10 -22 -11 -20 -2 -21 -2
-4 5 25 11 5 25 -20 15 -12 -4 -15 -3 -10 5 4 7 24 12 44 12 24 0 32 -3 24 -9z
m105 -67 c-3 -3 -12 -4 -19 -1 -8 3 -5 6 6 6 11 1 17 -2 13 -5z m-22 -24 c4
-6 -7 -10 -27 -9 -27 0 -30 2 -13 9 27 12 33 12 40 0z m3658 -267 c-7 -2 -19
-2 -25 0 -7 3 -2 5 12 5 14 0 19 -2 13 -5z m-3173 -213 c13 -11 19 -20 14 -20
-5 0 -2 -6 6 -13 15 -12 20 -26 23 -59 1 -10 6 -18 12 -18 5 0 2 -5 -7 -10
-16 -10 -16 -13 2 -51 10 -23 24 -45 31 -50 11 -7 11 -9 -1 -9 -10 0 -5 -9 14
-25 16 -14 25 -25 20 -25 -5 -1 10 -10 34 -21 24 -11 45 -26 48 -34 3 -8 21
-17 40 -21 34 -6 70 -34 44 -34 -8 0 -11 -3 -8 -6 4 -3 17 2 30 10 23 15 25
15 23 -3 -1 -24 -32 -55 -40 -41 -10 17 -65 11 -91 -9 -13 -10 -21 -21 -19
-25 3 -3 2 -4 -1 -1 -4 2 -14 0 -23 -5 -12 -6 -31 -2 -60 11 -24 10 -55 19
-70 19 -33 0 -120 -41 -121 -57 0 -7 -7 -13 -16 -13 -10 0 -14 -6 -11 -14 8
-21 -11 -33 -64 -41 -63 -9 -109 12 -175 81 -55 58 -64 73 -41 75 6 0 3 4 -8
9 -17 7 -17 9 -2 9 17 1 25 21 8 21 -4 0 -5 19 -1 42 5 23 6 57 3 74 -4 26 -1
35 16 46 11 7 21 19 21 26 0 7 14 19 30 26 17 7 27 15 23 19 -3 4 3 7 15 7 12
0 22 5 22 10 0 6 8 10 19 10 10 0 24 6 30 14 7 8 27 17 45 20 19 4 37 13 40
21 3 8 12 15 20 15 7 0 16 7 20 15 3 8 16 15 28 15 17 0 20 2 9 9 -11 7 -9 10
10 14 13 2 27 5 30 6 3 0 16 -8 29 -19z m404 -63 l47 6 -1 -184 c-2 -180 -2
-185 -28 -224 -46 -71 -59 -82 -97 -80 -19 1 -35 -2 -35 -6 0 -5 -8 -9 -17 -9
-15 0 -16 2 -3 10 8 5 10 10 4 10 -25 0 8 82 48 118 47 43 49 78 10 172 -37
88 -62 127 -89 139 -13 6 -23 17 -23 24 0 18 76 36 111 26 15 -4 47 -4 73 -2z
m-1001 -246 c2 -10 1 -25 -4 -32 -7 -11 -9 -11 -9 3 0 9 -5 18 -12 20 -6 2 -8
10 -4 16 11 18 23 15 29 -7z m61 -83 c16 -13 17 -18 6 -18 -22 0 -40 20 -39
45 0 14 2 15 6 5 3 -8 15 -23 27 -32z m105 -63 c1 -17 -1 -17 -9 -5 -5 8 -9
26 -9 40 0 23 1 23 9 5 5 -11 9 -29 9 -40z m4852 -2 c-17 -33 -60 -66 -75 -60
-21 8 -20 36 2 43 9 3 31 12 47 20 38 17 37 17 26 -3z m-4160 -44 c-5 -13 -10
-19 -11 -14 0 6 -5 3 -10 -5 -5 -8 -10 -10 -10 -5 0 12 33 56 38 51 1 -2 -2
-14 -7 -27z m-126 -29 c-3 -5 -11 -10 -16 -10 -6 0 -7 5 -4 10 3 6 11 10 16
10 6 0 7 -4 4 -10z m1635 -25 c0 -8 -7 -15 -15 -15 -16 0 -20 12 -8 23 11 12
23 8 23 -8z m117 -17 c-3 -8 -6 -5 -6 6 -1 11 2 17 5 13 3 -3 4 -12 1 -19z
m51 -89 c2 -8 -3 -5 -12 6 -16 19 -16 19 -5 -7 7 -15 15 -26 18 -24 3 2 6 -6
6 -19 0 -13 -3 -21 -7 -18 -5 2 -8 11 -8 19 0 10 -5 12 -12 8 -24 -15 -45 -11
-41 6 3 11 -3 19 -16 23 -12 3 -21 13 -20 24 0 16 1 16 9 -2 7 -18 8 -19 15
-3 4 10 11 15 16 12 5 -3 9 0 9 7 0 15 42 -12 48 -32z m-258 12 c0 -6 -4 -13
-10 -16 -5 -3 -10 1 -10 9 0 9 5 16 10 16 6 0 10 -4 10 -9z m73 -26 c-3 -9 -8
-14 -10 -11 -3 3 -2 9 2 15 9 16 15 13 8 -4z m-2003 -34 c15 -29 13 -31 -32
-31 l-41 0 23 25 c28 30 36 31 50 6z m-650 -1 c0 -5 -7 -10 -15 -10 -8 0 -15
5 -15 10 0 6 7 10 15 10 8 0 15 -4 15 -10z m2755 -24 c6 0 17 4 27 8 9 4 29 1
47 -8 17 -9 42 -14 55 -12 14 2 27 -1 29 -8 3 -8 -6 -12 -29 -11 -25 2 -39 -4
-49 -18 -13 -19 -15 -19 -21 -3 -4 11 -1 22 7 28 10 7 8 8 -8 3 -14 -4 -23 -2
-23 4 0 6 -4 11 -10 11 -5 0 -7 -14 -4 -32 4 -25 3 -29 -5 -18 -6 8 -11 23
-11 34 0 15 -3 16 -14 6 -8 -6 -12 -19 -9 -27 4 -10 2 -14 -5 -10 -6 4 -12 -1
-15 -10 -3 -13 -7 -8 -12 15 -4 17 -14 32 -21 32 -19 0 -17 -13 7 -44 16 -21
24 -24 39 -16 19 10 22 8 34 -24 5 -14 3 -16 -6 -9 -7 5 -24 10 -38 11 -14 1
-26 6 -28 12 -2 5 -11 10 -20 10 -15 -1 -15 -2 2 -15 10 -7 15 -19 11 -24 -3
-6 -3 -20 0 -31 6 -20 7 -20 33 -1 37 26 72 36 72 20 0 -7 3 -9 6 -6 4 4 1 14
-7 24 -12 14 -12 16 0 8 11 -6 13 -4 8 11 -6 15 -3 13 11 -5 14 -17 21 -20 27
-11 4 7 2 15 -4 20 -19 11 11 30 38 23 16 -4 21 -11 18 -24 -5 -19 15 -19 51
0 16 9 19 7 19 -12 1 -41 3 -48 14 -41 7 4 10 -1 7 -12 -2 -11 -13 -20 -25
-22 -24 -4 -40 -42 -16 -42 8 0 12 4 8 9 -3 6 3 15 13 20 16 8 21 6 31 -15 15
-33 14 -34 -6 -28 -17 5 -17 5 -1 -9 19 -15 14 -27 -10 -27 -8 0 -21 -8 -29
-17 -9 -11 -11 -12 -7 -3 6 12 4 12 -12 -1 -20 -17 -54 -32 -54 -23 0 2 10 9
23 14 17 7 18 9 5 9 -10 1 -18 7 -18 15 0 8 -4 18 -10 21 -6 4 -7 -1 -4 -12 5
-15 3 -15 -13 3 -23 26 -34 29 -44 12 -14 -22 -10 -29 15 -24 19 3 25 -1 29
-20 2 -13 1 -21 -4 -18 -4 2 -12 -4 -18 -13 -6 -11 -11 -13 -11 -5 0 9 -7 11
-20 7 -19 -6 -45 10 -47 28 -1 5 -4 12 -8 15 -4 4 -5 0 -3 -8 2 -10 -4 -14
-17 -13 -11 1 -14 0 -7 -3 6 -3 12 -12 12 -20 0 -9 -4 -13 -9 -10 -5 4 -11 3
-14 -1 -2 -5 -3 -3 -1 3 1 6 -2 16 -8 22 -8 8 -5 14 13 21 24 10 24 10 2 10
-13 1 -23 6 -23 12 0 8 -5 7 -15 -1 -13 -11 -14 -10 -9 4 3 9 12 16 20 16 17
0 18 17 2 23 -7 3 0 4 15 3 16 -2 32 -9 37 -16 5 -8 9 -9 14 -1 4 6 2 11 -5
11 -7 0 -9 3 -5 7 4 5 14 -1 22 -11 12 -17 14 -17 14 -4 0 21 -32 31 -90 30
-25 0 -39 2 -32 5 10 4 10 8 1 19 -6 8 -7 14 -2 14 5 0 10 7 10 15 0 8 -5 15
-11 15 -6 0 -4 4 4 10 12 8 12 10 -3 16 -9 3 -14 10 -11 16 3 5 2 17 -2 26
-14 33 -12 44 7 49 10 3 16 10 12 16 -4 6 0 8 11 4 10 -4 15 -3 11 3 -3 6 -2
10 4 10 6 0 14 -12 17 -26 8 -31 23 -15 25 26 1 22 2 23 7 5 4 -11 12 -20 17
-19z m695 24 c0 -5 -7 -10 -15 -10 -8 0 -15 5 -15 10 0 6 7 10 15 10 8 0 15
-4 15 -10z m-2904 -24 c12 -13 11 -15 -6 -21 -25 -8 -41 1 -33 20 7 19 20 19
39 1z m167 -27 c-11 -11 -43 -1 -43 12 0 5 10 13 23 18 16 6 23 5 25 -6 2 -8
0 -19 -5 -24z m1897 -33 c0 -18 -17 -29 -30 -21 -8 5 -7 11 1 21 15 18 29 18
29 0z m-58 -20 c6 4 8 2 4 -4 -3 -6 -2 -13 4 -17 13 -8 3 -25 -16 -25 -10 0
-14 11 -13 38 1 20 3 29 6 19 2 -9 9 -14 15 -11z m-1895 -6 c3 -11 14 -20 24
-20 18 0 23 -14 20 -52 -1 -10 3 -18 9 -18 11 0 9 -44 -2 -56 -4 -3 -1 -13 7
-21 11 -10 12 -20 4 -41 -13 -34 -13 -33 3 -43 10 -7 10 -9 1 -9 -7 0 -13 -7
-13 -15 0 -33 -29 -7 -50 45 -8 19 -14 38 -12 43 1 4 -5 7 -13 7 -11 0 -12 5
-5 25 7 17 6 25 -1 25 -6 0 -9 9 -6 20 3 11 -2 27 -10 35 -10 11 -13 24 -8 43
13 50 42 69 52 32z m1829 -98 c-10 -10 -29 15 -21 28 6 9 10 8 17 -4 6 -10 7
-20 4 -24z m638 24 c20 12 24 12 29 1 3 -8 2 -18 -1 -23 -9 -12 -74 -15 -67
-3 4 5 1 9 -4 9 -6 0 -11 7 -11 16 0 14 1 14 16 0 14 -14 18 -14 38 0z m-1134
-6 c0 -5 -4 -10 -9 -10 -6 0 -13 5 -16 10 -3 6 1 10 9 10 9 0 16 -4 16 -10z
m1073 -19 c7 -30 -7 -46 -29 -31 -13 7 -14 10 -3 7 12 -4 15 2 14 24 -2 31 10
31 18 0z m-518 9 c3 -5 -1 -10 -9 -10 -9 0 -16 5 -16 10 0 6 4 10 9 10 6 0 13
-4 16 -10z m1009 4 c9 -3 13 -11 10 -16 -4 -6 0 -14 7 -19 12 -7 11 -9 -1 -9
-13 0 -13 -1 0 -11 11 -8 12 -12 3 -16 -22 -8 -14 -31 15 -41 l27 -10 -27 -7
c-16 -4 -25 -11 -22 -16 8 -14 -10 -11 -32 6 -18 14 -18 14 6 16 16 1 19 3 8
6 -9 2 -15 10 -12 18 3 7 1 16 -5 19 -6 4 -8 13 -5 20 3 8 -2 16 -13 19 -16 4
-15 6 5 12 14 5 21 13 18 21 -6 16 -4 17 18 8z m-348 -26 c5 -7 3 -8 -6 -3
-10 6 -12 4 -6 -11 5 -14 4 -16 -5 -7 -6 6 -8 16 -5 22 9 14 13 14 22 -1z
m633 8 c-12 -10 -60 -16 -54 -6 3 5 18 10 32 10 15 0 24 -2 22 -4z m-689 -26
c0 -5 -4 -10 -10 -10 -5 0 -10 5 -10 10 0 6 5 10 10 10 6 0 10 -4 10 -10z
m665 -10 c-3 -5 -16 -10 -28 -9 -21 0 -21 1 -2 9 28 12 37 12 30 0z m-1389
-11 c10 -17 -13 -36 -27 -22 -12 12 -4 33 11 33 5 0 12 -5 16 -11z m652 -17
c2 -7 -6 -11 -22 -10 -19 2 -22 5 -14 15 12 15 30 13 36 -5z m46 3 c3 -9 0
-15 -8 -15 -7 0 -13 7 -13 15 0 8 4 15 8 15 4 0 9 -7 13 -15z m709 -12 c-7 -2
-19 -2 -25 0 -7 3 -2 5 12 5 14 0 19 -2 13 -5z m-818 -9 c14 -6 13 -8 -7 -18
-25 -13 -47 2 -25 16 15 9 12 9 32 2z m335 -9 c0 -8 -7 -15 -15 -15 -26 0 -18
20 13 29 1 1 2 -6 2 -14z m-270 -25 c12 -16 17 -30 11 -30 -6 0 -11 5 -11 10
0 6 -9 19 -20 30 -11 11 -16 20 -11 20 5 0 19 -13 31 -30z m86 3 c-10 -10 -19
5 -10 18 6 11 8 11 12 0 2 -7 1 -15 -2 -18z m1554 23 c0 -3 -4 -8 -10 -11 -5
-3 -10 -1 -10 4 0 6 5 11 10 11 6 0 10 -2 10 -4z m-2030 -42 c0 -17 -22 -14
-28 4 -2 7 3 12 12 12 9 0 16 -7 16 -16z m857 -24 c-1 -22 -14 -25 -37 -10
-13 8 -12 10 3 10 10 0 15 5 12 10 -3 6 1 10 9 10 9 0 14 -8 13 -20z m-222
-20 c3 -5 1 -10 -4 -10 -6 0 -11 5 -11 10 0 6 2 10 4 10 3 0 8 -4 11 -10z
m-135 -20 c0 -5 -2 -10 -4 -10 -3 0 -8 5 -11 10 -3 6 -1 10 4 10 6 0 11 -4 11
-10z m185 -9 c3 -5 1 -12 -5 -16 -5 -3 -10 1 -10 9 0 18 6 21 15 7z m-2635
-23 c30 -10 32 -12 14 -19 -14 -6 -9 -8 19 -8 21 -1 36 -5 33 -10 -3 -5 26
-12 64 -16 50 -5 70 -11 70 -21 0 -8 10 -14 21 -14 12 0 29 -8 38 -17 9 -10
25 -23 36 -29 20 -11 40 -84 24 -84 -4 0 -16 -14 -26 -31 -10 -16 -38 -46 -62
-65 -53 -41 -113 -47 -151 -14 -13 11 -19 20 -14 20 5 0 0 7 -10 15 -14 11
-16 15 -5 15 9 0 10 3 3 8 -20 14 -53 97 -40 104 8 6 7 8 -2 8 -8 0 -10 8 -6
25 6 26 -13 54 -38 56 -10 0 -10 2 1 6 11 4 8 10 -10 24 -20 16 -21 19 -6 19
14 0 17 5 12 20 -7 23 -8 23 35 8z m1955 -48 c17 -7 14 -9 -13 -9 -20 -1 -31
3 -27 9 7 12 13 12 40 0z m13 -27 c-29 -5 -37 -18 -15 -27 6 -3 -1 -2 -18 1
-16 4 -41 7 -54 6 -12 -1 -19 3 -15 7 9 9 59 17 104 17 23 0 22 0 -2 -4z
m-222 -18 c18 -18 59 -21 48 -3 -5 8 0 9 17 4 29 -9 84 -23 122 -31 24 -5 27
-8 17 -20 -10 -12 -10 -15 1 -15 8 0 1 -9 -16 -20 -16 -11 -30 -25 -30 -32 0
-6 -6 -13 -14 -16 -8 -3 -11 0 -7 7 4 6 3 11 -3 11 -5 0 -12 -4 -16 -10 -5 -9
32 -22 103 -36 18 -4 30 -9 27 -12 -2 -3 0 -11 6 -19 12 -14 9 -15 -63 -17
-21 -1 -38 2 -38 6 0 10 -86 26 -115 21 -28 -6 -79 22 -70 37 4 6 -4 10 -15
10 -13 0 -24 8 -27 20 -3 11 -9 20 -13 20 -15 0 -21 33 -8 42 9 5 6 8 -9 8
-53 0 8 43 85 59 2 1 10 -6 18 -14z m399 -25 c-3 -5 -13 -10 -21 -10 -8 0 -12
5 -9 10 3 6 13 10 21 10 8 0 12 -4 9 -10z m353 -22 c-6 -18 -99 -38 -143 -31
-36 6 -32 8 40 14 43 4 81 12 83 18 2 6 8 11 14 11 5 0 8 -5 6 -12z m-883 -9
c9 -14 4 -18 -33 -25 -23 -5 -32 -3 -32 6 0 8 3 11 6 7 4 -3 13 0 21 8 17 18
29 19 38 4z m1500 1 c3 -5 1 -10 -4 -10 -6 0 -11 5 -11 10 0 6 2 10 4 10 3 0
8 -4 11 -10z m-1610 -10 c3 -6 -4 -10 -17 -10 -18 0 -20 2 -8 10 19 12 18 12
25 0z m1770 -10 c3 -5 2 -10 -4 -10 -5 0 -13 5 -16 10 -3 6 -2 10 4 10 5 0 13
-4 16 -10z m-1252 -17 c-7 -2 -19 -2 -25 0 -7 3 -2 5 12 5 14 0 19 -2 13 -5z
m287 -3 c8 -5 11 -10 5 -10 -5 0 -1 -7 9 -15 19 -15 19 -15 -5 -16 -13 0 -18
-3 -11 -6 21 -8 13 -21 -23 -39 -22 -10 -45 -14 -62 -9 -26 6 -27 7 -8 18 31
17 42 31 37 46 -3 8 3 20 14 28 21 15 24 16 44 3z m374 -6 c9 -3 13 -10 10
-15 -3 -5 9 -12 26 -15 17 -4 33 -11 36 -15 3 -5 19 -9 35 -9 18 0 32 -6 36
-16 4 -11 20 -15 67 -14 33 0 102 -1 151 -4 50 -2 104 -5 121 -5 27 -1 31 -4
32 -31 1 -31 -14 -41 -24 -15 -8 19 -34 20 -34 1 0 -8 -9 -17 -19 -21 -11 -3
-21 -18 -23 -35 -4 -26 -1 -30 19 -30 22 0 23 -2 9 -15 -8 -8 -25 -15 -38 -16
-13 0 -41 -6 -63 -14 -38 -12 -35 -13 75 -15 74 -1 108 -4 95 -10 -19 -8 -19
-9 3 -9 12 -1 22 -5 22 -11 0 -5 9 -10 20 -10 27 0 26 -17 -2 -26 -21 -6 -21
-7 -3 -20 10 -8 13 -14 7 -14 -7 0 -11 -6 -10 -12 2 -8 -9 -14 -24 -16 -16 -2
-28 0 -28 5 0 4 -13 14 -29 21 -19 9 -28 18 -24 28 4 11 -4 14 -36 14 -43 0
-55 -14 -21 -25 11 -3 23 -18 26 -32 6 -21 11 -24 34 -19 33 6 44 -2 28 -21
-9 -11 -8 -17 4 -29 17 -17 52 -8 44 12 -4 10 3 14 19 14 15 0 25 6 25 14 0 8
7 17 16 20 21 8 34 8 32 -1 0 -5 3 -17 7 -27 6 -13 3 -23 -8 -31 -9 -7 -14
-15 -10 -18 10 -11 51 -8 58 3 3 6 1 10 -4 10 -22 0 -10 20 15 26 31 8 61 -20
56 -52 -2 -15 3 -23 18 -27 11 -3 19 -11 18 -18 -2 -7 8 -15 22 -19 22 -5 19
-7 -19 -14 -27 -4 -48 -3 -55 4 -7 7 -6 10 2 10 9 0 9 5 0 20 -7 11 -22 20
-34 20 -28 0 -40 -28 -16 -37 9 -4 23 -12 30 -19 13 -13 103 -16 200 -7 37 3
52 9 52 19 0 17 26 46 55 62 11 6 14 12 7 12 -20 0 10 40 31 40 15 0 16 3 7
21 -10 17 -8 21 10 26 18 5 21 12 19 54 -2 34 -7 49 -17 49 -22 0 -8 24 19 31
l24 7 -25 2 c-23 1 -23 2 -5 10 17 7 16 9 -10 9 -23 1 -27 4 -15 11 12 7 12
10 1 10 -7 0 -11 6 -7 15 3 8 1 15 -4 15 -18 0 -10 20 8 21 14 0 14 2 -3 8
-33 13 39 30 125 28 41 -1 65 -3 53 -5 -13 -2 -23 -7 -23 -12 0 -5 7 -7 16 -3
8 3 27 -1 41 -8 l26 -14 -29 -6 c-28 -6 -27 -7 7 -8 23 -1 39 -7 43 -16 3 -8
10 -15 16 -15 6 0 8 5 5 10 -9 14 141 6 159 -9 16 -14 42 -5 50 16 4 10 12 13
24 8 9 -5 42 -8 72 -7 l55 1 -44 -9 c-54 -11 -64 -20 -25 -21 29 -1 29 -1 -6
-11 -32 -9 -33 -11 -14 -18 12 -5 58 -14 103 -20 79 -12 101 -30 38 -30 -23
-1 -28 -3 -17 -9 8 -5 34 -9 58 -8 24 0 48 -5 55 -12 8 -8 5 -11 -12 -11 -34
0 -14 -20 22 -21 31 -2 31 -2 4 -6 -16 -3 -26 -10 -24 -16 2 -7 -3 -17 -12
-24 -15 -11 -14 -12 1 -13 9 0 20 -5 24 -11 4 -8 -1 -9 -16 -4 -15 5 -20 4
-16 -4 5 -7 -2 -12 -16 -12 -22 -2 -22 -2 -2 -6 25 -5 41 -53 18 -53 -10 0
-11 -6 -4 -26 13 -33 13 -32 -7 -37 -13 -3 -11 -5 6 -6 23 -1 23 -2 7 -20 -17
-18 -16 -20 19 -32 29 -11 33 -15 18 -20 -14 -6 -11 -8 12 -9 l30 -1 -25 -14
c-25 -14 -25 -14 10 -9 26 4 31 3 20 -5 -8 -6 -31 -11 -50 -11 -31 0 -81 -19
-55 -20 6 0 1 -7 -9 -15 -11 -8 -14 -15 -8 -15 26 0 11 -30 -15 -31 -21 -1
-23 -2 -8 -6 25 -6 44 -23 26 -23 -7 0 -9 -4 -6 -10 4 -6 -11 -10 -37 -10 -34
-1 -39 -3 -25 -11 9 -5 22 -7 27 -4 6 4 24 3 42 0 20 -5 26 -10 18 -15 -9 -6
-9 -9 0 -15 8 -5 3 -13 -17 -26 -19 -13 -23 -19 -11 -19 27 0 31 -19 6 -29
-22 -9 -22 -10 7 -11 26 -1 27 -3 10 -10 -11 -5 -14 -9 -7 -9 18 -1 15 -21 -4
-21 -14 0 -14 -2 0 -15 8 -8 18 -15 23 -15 15 0 34 -41 28 -61 -6 -18 -1 -19
75 -19 45 0 79 -4 76 -9 -7 -11 67 -23 88 -15 9 3 14 10 11 15 -3 4 4 13 15
19 11 6 18 15 15 20 -3 4 8 11 25 15 17 4 28 11 25 16 -12 19 16 49 45 49 l29
0 -17 -32 c-9 -18 -26 -40 -36 -48 -10 -8 -29 -25 -41 -37 -12 -13 -27 -23
-34 -23 -6 0 -11 -4 -11 -10 0 -5 5 -10 10 -10 6 0 10 -5 10 -12 0 -6 8 -20
17 -30 21 -24 25 -68 7 -75 -8 -3 -11 -9 -8 -14 3 -5 -2 -9 -11 -9 -11 0 -15
-5 -11 -15 3 -9 0 -15 -10 -15 -8 0 -13 -4 -9 -9 3 -6 -4 -15 -15 -21 -11 -6
-19 -16 -17 -23 1 -8 -11 -11 -38 -10 -34 1 -36 0 -17 -8 26 -10 25 -27 -3
-43 -10 -6 -37 -29 -59 -51 -62 -60 -137 -119 -170 -133 -16 -7 -26 -15 -23
-18 3 -4 -18 -19 -46 -34 -29 -16 -51 -33 -49 -39 1 -6 -7 -11 -18 -11 -10 0
-23 -6 -27 -13 -10 -17 -135 -57 -179 -57 -38 0 -86 19 -78 31 3 5 -5 9 -18
10 -22 0 -22 1 -3 9 19 8 19 9 -1 9 -28 1 -76 26 -67 34 3 4 -9 7 -28 7 -28 0
-38 -6 -52 -30 -13 -21 -26 -30 -45 -30 -19 0 -23 -3 -13 -9 11 -7 9 -10 -8
-16 -11 -3 -21 -11 -21 -16 0 -5 -8 -9 -17 -10 -11 0 -13 -3 -5 -6 20 -8 14
-23 -11 -23 -16 0 -23 6 -24 20 -1 14 4 20 18 20 11 0 17 5 14 10 -3 6 -25 10
-48 10 -31 0 -38 -3 -27 -10 11 -7 1 -9 -33 -8 -30 2 -51 -2 -56 -10 -4 -7
-14 -10 -23 -7 -8 3 -20 -1 -27 -9 -11 -13 -9 -17 13 -27 14 -7 24 -15 21 -19
-2 -3 17 -12 43 -19 38 -11 43 -15 27 -20 -21 -8 -28 -60 -10 -73 6 -5 5 -8
-2 -8 -7 0 -13 -11 -13 -25 0 -14 -5 -25 -11 -25 -6 0 -9 -7 -5 -15 3 -9 0
-15 -9 -15 -8 0 -15 -4 -15 -10 0 -16 30 -11 66 11 19 12 31 25 27 32 -4 7 0
8 11 4 17 -7 47 6 74 31 7 6 25 12 38 12 14 0 23 4 19 10 -3 5 16 12 44 16 28
4 48 10 45 15 -3 5 -3 9 0 9 2 0 13 3 23 6 15 5 15 4 3 -5 -13 -9 -11 -11 7
-11 12 0 29 7 37 16 9 8 21 12 27 9 6 -4 -12 -17 -39 -30 -27 -13 -52 -28 -56
-33 -3 -6 -20 -13 -36 -17 -17 -4 -30 -10 -30 -14 0 -3 -15 -14 -32 -22 -53
-26 -151 -71 -173 -80 -11 -4 -45 -18 -75 -29 -30 -12 -66 -28 -80 -35 -14 -7
-61 -25 -105 -40 -44 -14 -84 -30 -90 -34 -5 -5 -28 -12 -50 -16 -22 -4 -74
-18 -115 -32 -112 -37 -198 -57 -370 -87 -85 -15 -169 -31 -186 -37 -16 -5
-68 -13 -115 -18 -46 -6 -142 -18 -214 -27 -101 -14 -204 -18 -458 -18 l-327
-1 0 -23 c0 -33 -27 -39 -50 -9 -23 29 -78 57 -112 57 -27 0 -150 -78 -186
-117 -13 -14 -50 -38 -83 -54 -33 -16 -58 -33 -55 -38 3 -5 -13 -18 -37 -29
-47 -23 -117 -83 -117 -100 0 -7 -6 -12 -14 -12 -8 0 -32 -16 -53 -35 -21 -19
-41 -35 -44 -35 -3 0 -25 -18 -50 -40 -24 -22 -48 -40 -52 -40 -5 0 -5 -4 -2
-10 3 -5 -1 -10 -10 -10 -9 0 -44 -24 -78 -53 -84 -71 -87 -74 -81 -80 3 -3
-5 -8 -18 -12 -13 -4 -32 -17 -44 -29 -31 -31 -63 -56 -73 -56 -5 0 -11 -7
-15 -15 -3 -8 -12 -15 -20 -15 -8 0 -18 -9 -21 -20 -3 -11 -13 -20 -21 -20 -8
0 -12 -4 -9 -10 3 -5 -2 -10 -11 -10 -10 0 -14 -3 -11 -7 4 -3 -3 -11 -16 -18
-12 -6 -21 -17 -20 -23 2 -7 -6 -12 -18 -12 -11 0 -17 -5 -14 -10 4 -6 -6 -10
-22 -11 -25 0 -26 -1 -8 -9 11 -5 14 -9 6 -9 -7 -1 -24 -12 -36 -25 -12 -13
-32 -27 -44 -31 -12 -3 -19 -11 -16 -16 4 -5 -1 -9 -9 -9 -9 0 -16 -4 -16 -10
0 -5 -7 -10 -17 -10 -9 0 -13 -3 -10 -7 12 -11 -14 -33 -39 -33 -30 0 -32 16
-3 23 12 3 18 10 14 16 -3 6 1 11 9 11 9 0 16 4 16 9 0 5 9 13 21 16 11 4 18
12 16 19 -7 17 39 66 61 66 10 0 24 9 32 20 8 11 18 20 23 20 12 0 53 52 50
62 -2 5 4 8 12 8 33 0 110 64 99 81 -3 5 -1 9 4 9 6 0 36 27 69 61 88 91 92
95 183 172 47 40 115 101 151 137 77 75 118 110 128 110 4 0 23 16 42 36 18
20 54 50 79 67 25 17 60 46 79 64 19 19 69 59 111 91 l76 57 -86 0 c-47 -1
-130 5 -185 12 -55 6 -125 15 -155 18 -71 8 -105 16 -263 66 -48 15 -81 19
-110 15 -32 -5 -51 -1 -79 14 -21 11 -44 20 -52 20 -8 0 -16 5 -18 11 -2 6
-28 14 -58 18 l-55 7 45 8 c25 4 39 10 32 13 -6 3 -10 9 -6 14 3 5 -4 9 -15 9
-11 0 -23 5 -26 10 -3 6 -17 10 -30 10 -13 0 -25 5 -27 10 -2 6 -34 16 -71 23
-55 9 -67 14 -64 28 3 11 -7 21 -33 33 -20 9 -41 16 -46 16 -6 0 -27 16 -47
35 -20 19 -44 35 -52 35 -8 0 -15 4 -15 10 0 5 -11 12 -25 16 -14 3 -22 10
-19 15 3 5 -1 9 -9 9 -13 0 -28 11 -89 65 -10 8 -24 15 -32 15 -32 0 -56 50
-56 116 0 35 4 64 8 64 4 0 13 13 19 29 11 30 57 51 113 51 13 0 60 18 105 39
66 33 92 41 152 43 39 2 69 0 67 -4 -3 -4 0 -8 6 -8 16 0 40 -26 40 -44 0 -8
6 -19 14 -23 8 -4 34 -37 57 -73 24 -36 57 -81 73 -101 l29 -37 166 3 c91 2
160 1 154 -2 -20 -8 -15 -23 8 -23 11 0 18 -4 14 -9 -3 -6 3 -14 12 -20 16 -9
16 -12 3 -21 -13 -8 -12 -10 3 -10 11 0 15 -4 11 -11 -9 -16 152 -7 168 9 9 9
9 12 -1 12 -7 0 -9 5 -6 10 8 13 52 13 60 0 3 -6 24 -10 46 -10 24 0 38 -4 34
-10 -4 -6 6 -7 24 -4 32 7 66 -10 55 -27 -3 -5 0 -9 7 -9 6 0 9 -8 6 -20 -6
-22 12 -26 48 -10 19 9 19 9 -2 16 -13 3 -20 10 -17 15 3 5 0 9 -5 9 -6 0 -11
4 -11 10 0 16 121 9 127 -8 3 -8 0 -18 -8 -23 -10 -6 -6 -9 14 -9 15 0 30 -6
33 -14 6 -17 30 -11 38 9 3 10 -3 13 -21 12 -14 -1 -28 4 -30 11 -3 7 6 12 24
13 l28 1 -30 8 c-29 7 -29 8 9 9 22 0 36 4 33 8 -4 3 0 15 10 25 15 17 14 18
-24 18 -55 0 -104 11 -97 21 3 5 16 6 30 3 20 -5 23 -3 18 11 -5 13 -3 16 7
13 8 -3 13 -11 11 -17 -1 -6 10 -11 24 -11 23 0 26 4 22 25 -5 23 -3 24 37 18
24 -3 51 -1 61 6 15 9 10 10 -23 5 -29 -4 -43 -3 -43 5 0 6 8 10 18 9 37 -3
82 2 81 10 -1 4 0 10 1 15 1 4 3 12 4 19 0 7 12 18 26 25 l25 13 -30 1 c-17 1
-23 3 -12 6 9 2 15 9 12 14 -4 5 3 9 15 9 13 0 19 4 14 11 -3 6 0 16 7 21 12
8 12 10 1 15 -10 4 -5 11 15 25 27 19 27 19 3 13 -24 -7 -24 -6 -6 8 12 9 17
20 13 31 -4 11 -1 19 10 23 22 9 53 35 53 45 0 5 -8 8 -17 8 -19 0 -1 13 58
42 14 7 24 19 22 26 -3 7 5 12 19 13 22 0 22 1 3 9 -17 7 -17 9 -3 9 10 1 23
10 30 21 7 11 20 20 28 20 12 1 12 3 -3 14 -15 12 -15 14 -2 19 8 4 12 13 9
22 -3 8 -2 15 4 15 6 0 8 9 5 20 -4 13 0 20 10 20 17 0 40 -24 30 -33 -3 -4 6
-7 21 -7 23 0 27 4 23 19 -3 12 1 22 10 25 22 9 35 7 28 -4 -3 -5 1 -10 9 -10
9 0 16 7 16 15 0 8 -7 15 -15 15 -9 0 -12 6 -9 15 7 16 34 21 34 5 0 -5 10 1
23 13 13 12 22 27 20 33 -2 6 6 16 19 22 l23 11 -23 0 c-39 1 -19 25 29 34
l44 9 -30 13 c-17 7 -23 14 -15 14 13 1 13 3 0 15 -25 23 -109 66 -130 66 -10
0 -22 5 -25 10 -3 6 2 10 11 10 13 0 15 3 7 11 -6 6 -9 18 -6 27 5 12 1 14
-20 8 -20 -5 -27 -3 -27 9 0 8 -5 15 -11 15 -6 0 -9 -9 -6 -20 3 -13 -2 -25
-16 -35 -12 -8 -16 -15 -9 -15 7 0 10 -4 7 -10 -3 -5 -15 -10 -26 -10 -10 0
-19 5 -19 10 0 6 -7 10 -15 10 -9 0 -28 20 -43 45 -19 31 -34 44 -49 45 -13 0
-23 5 -23 10 0 6 -19 10 -42 10 -78 0 -147 39 -164 95 -14 48 -30 75 -42 75
-7 0 -10 5 -7 10 3 6 1 10 -6 10 -8 0 -9 3 0 13 9 11 2 17 -31 28 -24 7 -51
22 -60 31 -10 10 -23 18 -29 18 -5 0 -7 5 -4 10 3 6 1 10 -6 10 -6 0 -27 10
-47 22 l-34 21 28 15 c32 17 31 17 -39 27 -27 4 -46 9 -43 12 3 4 -3 13 -14
20 -23 16 -81 9 -77 -10 1 -6 -9 -13 -22 -15 -15 -2 -21 0 -17 7 4 6 0 11 -8
11 -9 0 -16 5 -16 10 0 6 -9 10 -19 10 -26 0 -51 10 -51 21 0 5 9 9 20 9 17 0
19 3 11 19 -9 16 -6 19 31 24 28 4 54 0 82 -13 40 -17 191 -50 231 -50 17 0
17 2 5 10 -12 8 -11 10 6 10 27 0 76 -25 67 -33 -3 -4 5 -7 20 -7 14 0 29 5
32 10 3 6 11 10 16 10 6 0 7 -4 4 -10 -4 -6 20 -10 64 -10 38 0 71 -4 73 -10
2 -5 25 -13 51 -16 36 -5 56 -2 81 11 40 22 70 14 61 -15 -5 -16 -2 -20 19
-20 14 0 26 -4 26 -9 0 -5 10 -11 22 -14 19 -5 20 -8 7 -23 -12 -15 -11 -16
16 -10 17 3 66 -1 110 -9 73 -15 229 -20 247 -9 4 3 24 -2 44 -11 46 -19 44
-19 44 5 0 12 7 20 16 20 12 0 15 -7 12 -24 -4 -20 -1 -24 16 -23 41 2 76 -3
75 -10 -5 -33 3 -38 57 -39 32 0 48 3 38 7 -17 6 -17 8 6 17 18 8 20 11 8 11
-22 1 -24 31 -2 31 12 0 14 7 9 28 -4 20 -1 33 10 42 20 17 19 37 -2 43 -13 3
-12 5 5 6 19 1 22 5 17 22 -5 14 -1 25 12 34 17 13 16 14 -12 25 -16 7 -52 15
-78 18 -34 3 -47 8 -43 18 3 7 -3 15 -12 17 -9 3 -1 6 18 7 l35 2 -40 9 c-22
5 -70 14 -107 20 -74 12 -97 35 -25 25 69 -9 153 -16 135 -10 -25 7 -22 21 4
27 12 4 20 9 17 11 -3 3 -20 0 -38 -7 -26 -9 -33 -9 -40 2 -5 7 -14 10 -21 6
-6 -4 -28 -4 -48 1 l-37 7 50 8 c32 5 52 4 56 -3 4 -7 13 -6 29 2 12 6 33 9
46 6 29 -8 102 23 84 34 -9 6 -9 9 -1 14 6 4 9 12 6 17 -4 5 10 9 29 9 42 0
48 17 9 26 -88 19 -61 34 73 40 60 3 111 7 113 10 6 6 67 5 85 -2z m-3146 -24
c8 -13 9 -20 1 -20 -15 0 8 -21 54 -49 30 -19 35 -26 26 -37 -9 -11 -8 -14 4
-14 9 0 28 -11 43 -25 15 -14 31 -25 36 -25 6 0 21 -9 35 -20 14 -11 40 -22
59 -26 19 -3 34 -10 34 -15 0 -4 15 -11 33 -14 19 -4 46 -18 60 -31 14 -13 31
-24 38 -24 6 0 9 -6 6 -14 -3 -7 8 -26 24 -42 20 -19 26 -31 19 -39 -8 -9 -4
-14 12 -19 19 -5 20 -8 8 -16 -12 -7 -12 -10 -1 -10 7 0 11 -6 7 -15 -3 -9 0
-15 10 -15 8 0 13 -4 9 -9 -3 -5 2 -16 10 -24 8 -9 15 -20 15 -25 0 -6 3 -12
8 -14 4 -1 25 -29 47 -62 22 -32 47 -61 55 -64 8 -3 24 -16 35 -28 15 -16 28
-20 55 -17 33 4 34 3 16 -11 -20 -16 -20 -16 0 -16 11 0 38 -9 60 -19 21 -10
61 -22 87 -26 26 -4 54 -14 62 -21 7 -8 19 -14 25 -14 6 0 9 -4 5 -9 -3 -5 4
-12 15 -16 11 -3 20 -12 20 -20 0 -7 8 -16 17 -19 15 -6 15 -8 3 -16 -12 -8
-11 -10 5 -10 18 -1 18 -2 -4 -14 -17 -10 -20 -15 -11 -21 9 -6 6 -11 -11 -21
l-24 -13 30 -1 c29 0 29 0 8 -15 -29 -20 -36 -52 -12 -58 11 -3 19 -9 19 -14
0 -10 -49 -33 -72 -33 -10 0 -18 -4 -18 -10 0 -5 -7 -10 -15 -10 -8 0 -15 -4
-15 -10 0 -5 -17 -12 -38 -16 -46 -8 -80 -29 -60 -37 8 -3 5 -6 -6 -6 -11 -1
-29 -10 -40 -20 -22 -21 -95 -30 -131 -17 -14 6 -16 5 -7 -2 11 -7 8 -11 -12
-16 -14 -3 -26 -11 -26 -17 0 -6 -9 -8 -22 -3 -13 3 -20 3 -16 -1 9 -10 -37
-35 -63 -35 -11 0 -18 -6 -16 -12 2 -15 -112 -15 -122 -1 -3 5 -17 17 -31 26
-15 11 -19 17 -10 17 13 0 13 2 0 10 -13 9 -13 11 0 20 11 7 11 10 2 10 -7 0
-11 4 -8 9 4 5 0 12 -6 15 -10 5 -10 7 1 12 9 5 10 8 2 13 -18 12 -21 49 -5
55 9 3 12 10 9 16 -3 5 -1 10 5 10 8 0 9 10 5 30 -5 21 -3 30 6 30 8 0 3 7
-10 16 -17 13 -20 18 -10 25 10 6 7 13 -14 29 -15 12 -25 25 -22 30 3 4 -4 10
-15 13 -13 3 -18 10 -14 21 4 12 0 16 -16 16 -11 0 -19 4 -16 9 3 5 -11 16
-32 24 -24 11 -30 16 -17 17 15 0 17 2 7 9 -8 4 -12 12 -10 17 1 5 -9 15 -24
22 -30 14 -36 27 -15 35 7 3 5 6 -5 6 -10 1 -18 8 -18 16 0 8 -5 15 -11 15 -6
0 -9 7 -5 15 4 10 -1 15 -14 15 -21 0 -28 20 -7 20 6 1 2 9 -11 19 -13 11 -17
21 -11 23 8 3 6 10 -5 21 -10 9 -15 17 -11 17 3 0 -1 13 -9 29 -9 16 -12 31
-9 35 4 3 0 6 -8 6 -18 0 -23 40 -6 40 8 1 7 5 -3 13 -18 14 -24 32 -23 70 0
15 -4 27 -8 27 -5 0 -6 7 -3 15 4 9 0 15 -9 15 -16 0 -30 26 -22 40 3 5 -4 14
-16 21 -20 10 -20 12 -6 21 13 7 15 14 7 27 -5 10 -6 21 -3 25 3 3 -2 6 -13 6
-15 0 -16 2 -5 9 11 7 9 10 -8 16 -12 3 -19 10 -16 15 3 5 -1 11 -7 13 -7 3
-3 6 9 6 l23 1 -20 35 c-18 32 -18 35 -2 35 15 0 15 2 2 10 -12 8 -13 12 -2
19 8 4 13 12 11 17 -1 5 8 14 21 20 15 8 18 13 8 17 -7 3 5 6 27 6 30 1 43 -4
53 -19z m2639 14 c-3 -3 -12 -4 -19 -1 -8 3 -5 6 6 6 11 1 17 -2 13 -5z m1886
-161 c-7 -2 -19 -2 -25 0 -7 3 -2 5 12 5 14 0 19 -2 13 -5z m127 -13 c8 -5 11
-12 8 -16 -10 -9 -38 3 -38 16 0 12 10 13 30 0z m-3470 -60 c0 -5 -4 -10 -10
-10 -5 0 -10 5 -10 10 0 6 5 10 10 10 6 0 10 -4 10 -10z m2513 -5 c1 -5 -5
-11 -14 -13 -9 -2 -16 4 -16 13 0 17 27 17 30 0z m1155 8 c-10 -2 -26 -2 -35
0 -10 3 -2 5 17 5 19 0 27 -2 18 -5z m-3580 -10 c-10 -2 -26 -2 -35 0 -10 3
-2 5 17 5 19 0 27 -2 18 -5z m3715 -10 c-7 -2 -19 -2 -25 0 -7 3 -2 5 12 5 14
0 19 -2 13 -5z m-3808 -13 c3 -5 2 -10 -4 -10 -5 0 -13 5 -16 10 -3 6 -2 10 4
10 5 0 13 -4 16 -10z m1498 3 c-7 -2 -19 -2 -25 0 -7 3 -2 5 12 5 14 0 19 -2
13 -5z m2307 -14 c11 -6 8 -8 -12 -9 -35 0 -59 10 -52 21 6 10 36 4 64 -12z
m-1006 5 c16 -6 23 -54 9 -54 -5 0 -19 -3 -32 -7 -20 -5 -23 -3 -18 10 3 8 -1
21 -10 29 -14 11 -13 13 8 19 13 4 25 7 26 8 1 1 8 -2 17 -5z m-2386 -27 c2
-12 -3 -17 -17 -17 -15 0 -21 6 -21 21 0 25 33 22 38 -4z m3457 13 c3 -5 2
-10 -4 -10 -5 0 -13 5 -16 10 -3 6 -2 10 4 10 5 0 13 -4 16 -10z m-2682 -15
c0 -6 -7 -11 -16 -13 -12 -3 -15 1 -11 13 7 17 25 17 27 0z m1532 -35 c-3 -5
-11 -10 -16 -10 -6 0 -7 5 -4 10 3 6 11 10 16 10 6 0 7 -4 4 -10z m-1260 -10
c3 -5 -2 -10 -12 -10 -10 0 -29 -3 -43 -7 -22 -6 -24 -5 -11 10 15 19 56 23
66 7z m1215 -15 c0 -8 -4 -15 -10 -15 -5 0 -10 7 -10 15 0 8 5 15 10 15 6 0
10 -7 10 -15z m175 -12 c-11 -47 -55 -63 -69 -26 -8 19 1 32 28 43 39 16 49
12 41 -17z m-1228 -29 c-3 -3 -12 -4 -19 -1 -8 3 -5 6 6 6 11 1 17 -2 13 -5z
m-482 -32 c0 -18 -20 -15 -23 4 -3 10 1 15 10 12 7 -3 13 -10 13 -16z m165
-22 c0 -5 -7 -10 -15 -10 -8 0 -15 5 -15 10 0 6 7 10 15 10 8 0 15 -4 15 -10z
m190 -30 c0 -5 -7 -10 -16 -10 -8 0 -12 5 -9 10 3 6 10 10 16 10 5 0 9 -4 9
-10z m2317 -126 c-3 -3 -12 -4 -19 -1 -8 3 -5 6 6 6 11 1 17 -2 13 -5z m43
-24 c13 -9 13 -10 0 -10 -8 0 -22 5 -30 10 -13 9 -13 10 0 10 8 0 22 -5 30
-10z m-37 -210 c-14 -6 -32 -6 -45 0 -19 7 -15 9 22 9 37 0 41 -2 23 -9z
m-2825 -42 c-6 -18 -25 -21 -25 -3 0 8 7 15 15 15 7 0 12 -5 10 -12z m16 -74
c20 -8 21 -30 1 -38 -19 -7 -45 3 -45 18 0 6 -4 5 -9 -3 -5 -8 -16 -11 -27 -7
-20 8 -10 21 21 29 31 7 42 8 59 1z m-474 -454 c-20 -13 -33 -13 -25 0 3 6 14
10 23 10 15 0 15 -2 2 -10z m-55 -160 c-3 -5 -13 -10 -21 -10 -8 0 -12 5 -9
10 3 6 13 10 21 10 8 0 12 -4 9 -10z m3798 -96 c42 -3 77 -10 77 -16 0 -6 -15
-7 -37 -4 -21 3 -73 9 -116 12 -43 4 -80 11 -83 16 -4 6 12 7 37 4 24 -3 79
-8 122 -12z m-3983 -14 c-8 -5 -24 -10 -35 -10 -17 0 -17 2 -5 10 8 5 24 10
35 10 17 0 17 -2 5 -10z m170 4 c0 -9 -32 -33 -44 -34 -5 0 -1 9 9 20 18 20
35 26 35 14z m-175 -34 c-3 -5 -11 -10 -16 -10 -6 0 -7 5 -4 10 3 6 11 10 16
10 6 0 7 -4 4 -10z m0 -100 c3 -5 -1 -10 -9 -10 -9 0 -16 5 -16 10 0 6 4 10 9
10 6 0 13 -4 16 -10z m2670 -31 c5 -16 12 -19 32 -14 18 4 24 2 21 -7 -5 -14
-98 -20 -98 -6 0 4 7 8 15 8 13 0 14 4 5 20 -8 16 -8 20 4 20 8 0 18 -9 21
-21z m-2512 -26 c-7 -2 -19 -2 -25 0 -7 3 -2 5 12 5 14 0 19 -2 13 -5z m2757
-43 c0 -5 -5 -10 -11 -10 -5 0 -7 5 -4 10 3 6 8 10 11 10 2 0 4 -4 4 -10z
m1100 -54 c0 -3 -4 -8 -10 -11 -5 -3 -10 -1 -10 4 0 6 5 11 10 11 6 0 10 -2
10 -4z m9 -40 c7 -8 8 -17 3 -20 -6 -3 -12 3 -15 14 -6 24 -4 25 12 6z m-1125
-102 c23 -9 20 -34 -5 -34 -11 0 -17 -4 -14 -10 3 -5 -1 -10 -9 -10 -9 0 -16
-7 -16 -15 0 -9 -9 -15 -22 -15 -12 0 -18 -3 -15 -7 4 -3 -2 -13 -13 -20 -11
-8 -18 -19 -15 -24 4 -5 -1 -9 -9 -9 -9 0 -16 -7 -16 -15 0 -8 -7 -15 -16 -15
-14 0 -15 -7 -10 -44 6 -40 5 -46 -16 -57 -13 -7 -28 -19 -33 -26 -6 -8 -18
-11 -26 -8 -14 5 -139 138 -139 147 0 3 232 117 310 152 40 18 43 18 64 10z
m-3896 -51 c12 -3 25 -9 28 -14 3 -5 16 -9 30 -9 14 0 22 -4 19 -10 -3 -5 -1
-10 6 -10 7 0 10 -2 8 -5 -6 -5 -104 34 -134 54 l-20 13 20 -8 c11 -3 30 -9
43 -11z m309 -149 c-3 -3 -12 -4 -19 -1 -8 3 -5 6 6 6 11 1 17 -2 13 -5z m-47
-15 c-58 -37 -151 -89 -159 -89 -6 0 -11 -4 -11 -10 0 -5 -5 -10 -10 -10 -6 0
-24 -10 -39 -21 -16 -12 -35 -19 -43 -16 -9 3 -7 7 7 13 11 4 47 25 80 47 84
57 157 97 175 96 13 0 13 -1 0 -10z m2974 -140 c17 -35 55 -88 89 -123 33 -33
60 -64 59 -68 -1 -3 5 -11 12 -17 17 -15 9 -48 -13 -56 -9 -3 -25 -24 -35 -48
-21 -45 -65 -94 -106 -119 -51 -30 -166 -6 -172 36 -2 11 -10 22 -19 24 -23 4
-62 -74 -55 -109 8 -41 -15 -54 -97 -54 l-70 0 -32 -45 c-42 -60 -75 -71 -124
-43 l-36 21 -38 -35 c-44 -40 -67 -38 -108 8 -31 36 -53 37 -76 3 -34 -52 -76
-51 -136 4 -32 30 -48 25 -83 -26 -25 -36 -34 -26 -34 37 0 56 24 73 98 70 57
-2 60 -4 66 -31 7 -36 31 -36 44 1 9 27 15 29 67 33 66 4 80 -2 89 -37 8 -32
32 -32 40 -1 4 17 19 29 49 41 24 9 50 15 58 14 25 -4 93 13 125 32 17 11 43
19 58 19 34 0 82 25 95 48 6 12 5 23 -6 37 -13 16 -15 17 -10 3 7 -20 -17 -26
-28 -8 -4 6 -10 8 -15 5 -4 -3 -14 3 -21 12 -12 14 -12 16 1 8 13 -8 13 -7 1
8 -7 9 -10 17 -7 17 4 0 0 7 -8 16 -21 21 -2 41 39 40 22 0 33 6 42 24 8 15
13 19 13 10 0 -9 -5 -21 -12 -28 -9 -9 -9 -12 0 -12 7 0 12 5 12 11 0 5 5 7
12 3 7 -4 8 -3 4 5 -9 14 10 40 39 51 17 7 17 9 3 9 -21 1 -25 21 -5 21 19 0
17 30 -2 31 -12 0 -11 3 4 9 11 5 15 9 9 9 -15 1 -25 39 -12 47 5 3 7 12 4 20
-3 8 0 14 7 14 8 0 8 3 -2 9 -11 7 -10 10 5 14 13 3 10 5 -9 6 -41 2 -26 16
40 36 32 10 72 26 88 36 53 31 67 25 99 -42z m-3249 -29 c-3 -5 -13 -10 -21
-10 -8 0 -14 -4 -14 -10 0 -5 -8 -10 -17 -10 -15 0 -13 4 7 20 26 21 56 27 45
10z m2895 -18 c0 -19 -93 -101 -126 -112 -27 -9 -35 -16 -31 -31 3 -10 2 -18
-2 -17 -16 3 -40 -15 -34 -26 4 -6 -1 -4 -11 4 -18 14 -18 15 5 20 18 5 20 7
9 12 -23 9 -48 -14 -44 -39 2 -12 0 -24 -5 -27 -5 -3 -8 2 -7 12 0 9 -5 16
-12 14 -8 -1 -11 2 -7 8 3 6 12 7 18 4 9 -5 9 -4 0 6 -10 11 -17 10 -39 -5
-19 -12 -29 -14 -32 -7 -4 14 -133 17 -148 3 -5 -5 -35 -11 -67 -13 -35 -3
-53 -1 -45 4 8 6 1 8 -22 6 -24 -2 -35 1 -35 10 0 8 -9 20 -19 28 -11 7 -18
16 -15 18 5 5 84 19 235 41 61 9 178 34 260 56 159 41 174 44 174 31z m-130
-182 c-8 -5 -19 -10 -25 -10 -5 0 -3 5 5 10 8 5 20 10 25 10 6 0 3 -5 -5 -10z
m80 -4 c0 -11 -19 -15 -25 -6 -3 5 1 10 9 10 9 0 16 -2 16 -4z m-1285 -50 c38
-16 44 -36 23 -81 -18 -41 -57 -33 -127 25 -33 27 -62 54 -66 60 -10 16 130
12 170 -4z m1285 4 c8 -5 11 -10 5 -10 -5 0 -17 5 -25 10 -8 5 -10 10 -5 10 6
0 17 -5 25 -10z m-63 -14 c-15 -7 -24 -16 -20 -21 5 -4 2 -5 -6 0 -12 7 -11
10 4 22 11 7 26 13 34 12 9 0 4 -6 -12 -13z m-187 -46 c0 -5 -2 -10 -4 -10 -3
0 -8 5 -11 10 -3 6 -1 10 4 10 6 0 11 -4 11 -10z m336 -77 c-7 -7 -26 7 -26
19 0 6 6 6 15 -2 9 -7 13 -15 11 -17z m503 -12 c-13 -22 -40 -57 -60 -78 -48
-52 -72 -90 -64 -103 3 -5 2 -10 -3 -10 -5 0 -22 -11 -38 -25 -16 -14 -25 -25
-21 -25 19 0 -52 -49 -108 -74 -103 -48 -145 -54 -145 -20 0 7 -15 17 -32 22
-28 7 -30 10 -13 14 11 4 41 9 67 13 30 4 51 13 57 23 14 26 14 34 -1 43 -9 6
-6 9 12 9 18 0 21 3 12 9 -11 7 -10 9 3 15 9 3 14 10 10 15 -7 12 55 81 72 81
7 0 13 5 13 10 0 11 43 13 78 3 17 -4 22 -11 19 -24 -5 -19 8 -27 15 -10 2 5
30 41 63 80 67 79 102 96 64 32z m-1496 -63 c12 -9 22 -44 33 -118 9 -58 20
-111 26 -118 11 -13 68 -41 98 -49 38 -9 100 -11 95 -2 -4 5 -1 9 4 9 6 0 10
3 10 8 -5 31 5 29 32 -7 35 -49 35 -76 -3 -104 -29 -21 -47 -19 -143 15 -16 6
-46 13 -67 15 -47 6 -78 35 -80 76 -1 18 -3 51 -4 75 -4 91 -13 113 -50 128
-38 16 -39 17 -23 47 21 38 43 46 72 25z m287 -488 c12 -7 12 -12 3 -21 -9 -9
-16 -9 -27 1 -26 21 -5 39 24 20z m-2343 -136 c-3 -3 -12 -4 -19 -1 -8 3 -5 6
6 6 11 1 17 -2 13 -5z"/>
<path d="M3005 4392 c-6 -4 -8 -20 -5 -35 5 -27 5 -27 18 -6 9 14 10 19 2 14
-9 -5 -10 -1 -5 14 7 23 6 25 -10 13z"/>
<path d="M2981 4343 c-1 -12 -5 -23 -11 -25 -5 -1 -6 -8 -2 -14 12 -20 29 8
21 36 -6 23 -7 23 -8 3z"/>
<path d="M3050 4309 c0 -5 5 -7 10 -4 6 3 10 8 10 11 0 2 -4 4 -10 4 -5 0 -10
-5 -10 -11z"/>
<path d="M2796 4263 c-6 -14 -5 -15 5 -6 7 7 10 15 7 18 -3 3 -9 -2 -12 -12z"/>
<path d="M2860 4249 c0 -5 5 -7 10 -4 6 3 10 8 10 11 0 2 -4 4 -10 4 -5 0 -10
-5 -10 -11z"/>
<path d="M2480 3980 c0 -5 5 -10 11 -10 5 0 7 5 4 10 -3 6 -8 10 -11 10 -2 0
-4 -4 -4 -10z"/>
<path d="M2525 3961 c-19 -8 -19 -8 3 -15 13 -4 26 -5 29 -2 4 3 0 6 -8 6 -11
0 -11 2 1 10 18 11 3 12 -25 1z"/>
<path d="M2588 3933 c6 -2 18 -2 25 0 6 3 1 5 -13 5 -14 0 -19 -2 -12 -5z"/>
<path d="M2753 3833 c9 -2 23 -2 30 0 6 3 -1 5 -18 5 -16 0 -22 -2 -12 -5z"/>
<path d="M3160 3735 c-7 -8 -8 -15 -2 -15 5 0 15 7 22 15 7 8 8 15 2 15 -5 0
-15 -7 -22 -15z"/>
<path d="M3890 3600 c-25 -4 -34 -8 -20 -9 14 0 50 -4 80 -7 51 -5 54 -4 36
10 -21 17 -25 17 -96 6z"/>
<path d="M1815 3540 c-4 -6 5 -10 20 -10 15 0 24 4 20 10 -3 6 -12 10 -20 10
-8 0 -17 -4 -20 -10z"/>
<path d="M3998 3543 c6 -2 18 -2 25 0 6 3 1 5 -13 5 -14 0 -19 -2 -12 -5z"/>
<path d="M5235 3540 c3 -5 11 -10 16 -10 6 0 7 5 4 10 -3 6 -11 10 -16 10 -6
0 -7 -4 -4 -10z"/>
<path d="M5248 3503 c7 -3 16 -2 19 1 4 3 -2 6 -13 5 -11 0 -14 -3 -6 -6z"/>
<path d="M2030 3483 l-25 -15 25 6 c14 3 28 6 33 6 4 0 7 5 7 10 0 13 -9 11
-40 -7z"/>
<path d="M2010 3454 c0 -16 23 -44 35 -44 19 0 19 17 1 36 -15 14 -36 19 -36
8z"/>
<path d="M3928 3453 c7 -3 16 -2 19 1 4 3 -2 6 -13 5 -11 0 -14 -3 -6 -6z"/>
<path d="M4078 3443 c7 -3 16 -2 19 1 4 3 -2 6 -13 5 -11 0 -14 -3 -6 -6z"/>
<path d="M3950 3430 c8 -5 20 -10 25 -10 6 0 3 5 -5 10 -8 5 -19 10 -25 10 -5
0 -3 -5 5 -10z"/>
<path d="M2028 3393 c7 -3 16 -2 19 1 4 3 -2 6 -13 5 -11 0 -14 -3 -6 -6z"/>
<path d="M3918 3383 c12 -2 32 -2 45 0 12 2 2 4 -23 4 -25 0 -35 -2 -22 -4z"/>
<path d="M4222 3288 c7 -19 45 -22 45 -3 0 9 -9 15 -24 15 -15 0 -23 -5 -21
-12z"/>
<path d="M4663 3283 c9 -2 23 -2 30 0 6 3 -1 5 -18 5 -16 0 -22 -2 -12 -5z"/>
<path d="M4638 3243 c6 -2 18 -2 25 0 6 3 1 5 -13 5 -14 0 -19 -2 -12 -5z"/>
<path d="M5308 3203 c7 -3 16 -2 19 1 4 3 -2 6 -13 5 -11 0 -14 -3 -6 -6z"/>
<path d="M4798 3153 c7 -3 16 -2 19 1 4 3 -2 6 -13 5 -11 0 -14 -3 -6 -6z"/>
<path d="M4853 3043 c9 -2 23 -2 30 0 6 3 -1 5 -18 5 -16 0 -22 -2 -12 -5z"/>
<path d="M4908 3013 c7 -3 16 -2 19 1 4 3 -2 6 -13 5 -11 0 -14 -3 -6 -6z"/>
<path d="M5215 3011 c-3 -5 -1 -12 4 -15 12 -8 41 3 41 15 0 12 -37 12 -45 0z"/>
<path d="M4857 2974 c-9 -10 4 -34 19 -34 8 0 11 6 7 17 -5 13 -3 15 13 8 10
-4 30 -8 44 -8 24 1 24 1 5 -13 -10 -8 -33 -14 -51 -14 -35 0 -55 -17 -31 -26
9 -3 29 2 47 11 23 12 47 15 88 11 l57 -5 -44 10 c-31 8 -40 13 -30 19 11 8
11 10 -1 14 -28 9 -116 16 -123 10z"/>
<path d="M4980 2900 c20 -5 39 -5 45 1 5 5 -8 9 -35 8 l-45 -1 35 -8z"/>
<path d="M4718 2883 c6 -2 18 -2 25 0 6 3 1 5 -13 5 -14 0 -19 -2 -12 -5z"/>
<path d="M4825 2881 c-36 -4 -45 -8 -32 -13 30 -13 82 -9 103 7 19 14 19 14
-1 13 -11 -1 -42 -4 -70 -7z"/>
<path d="M4933 2878 c1 -7 7 -17 12 -21 6 -5 -2 -6 -17 -3 -16 4 -28 2 -28 -4
0 -13 60 -13 80 0 13 8 13 10 -1 10 -9 0 -19 7 -23 15 -7 18 -27 20 -23 3z"/>
<path d="M4888 2818 c-32 -6 -58 -15 -58 -20 0 -5 9 -6 23 -1 12 4 49 8 82 7
33 0 51 1 41 4 -15 3 -16 6 -5 13 18 11 -4 10 -83 -3z"/>
<path d="M4978 2783 c7 -3 16 -2 19 1 4 3 -2 6 -13 5 -11 0 -14 -3 -6 -6z"/>
<path d="M5007 2744 c-8 -8 1 -24 12 -24 4 0 8 7 8 15 0 16 -9 20 -20 9z"/>
<path d="M5375 2700 c-4 -6 5 -10 20 -10 15 0 24 4 20 10 -3 6 -12 10 -20 10
-8 0 -17 -4 -20 -10z"/>
<path d="M5105 2610 c28 -12 37 -12 30 0 -3 6 -16 10 -28 9 -21 0 -21 -1 -2
-9z"/>
<path d="M5080 2590 c-13 -8 -12 -10 3 -10 10 0 16 -4 13 -8 -3 -5 8 -16 25
-26 16 -9 29 -21 29 -27 0 -5 12 -9 28 -9 21 0 24 2 12 10 -13 9 -13 10 0 10
13 0 13 1 0 10 -13 9 -13 11 0 20 12 8 9 10 -13 10 -16 0 -26 4 -22 10 3 6 0
10 -7 10 -7 0 -22 3 -33 5 -11 3 -27 1 -35 -5z"/>
<path d="M5425 2450 c-14 -7 -8 -8 20 -3 22 3 42 7 44 9 9 8 -45 2 -64 -6z"/>
<path d="M4998 2419 c-9 -5 -15 -16 -12 -24 4 -9 -4 -15 -23 -18 l-28 -4 27
-2 c15 0 34 7 43 16 16 16 18 16 27 0 5 -10 21 -17 40 -17 30 0 31 0 13 20
-10 11 -14 20 -9 21 13 1 -29 18 -46 18 -8 0 -23 -4 -32 -10z m39 -5 c-3 -3
-12 -4 -19 -1 -8 3 -5 6 6 6 11 1 17 -2 13 -5z"/>
<path d="M5368 2423 c-37 -6 -36 -23 2 -23 17 0 30 4 30 9 0 5 8 12 18 14 14
4 13 5 -3 4 -11 0 -32 -2 -47 -4z"/>
<path d="M5018 2353 c6 -2 18 -2 25 0 6 3 1 5 -13 5 -14 0 -19 -2 -12 -5z"/>
<path d="M4968 2343 c7 -3 16 -2 19 1 4 3 -2 6 -13 5 -11 0 -14 -3 -6 -6z"/>
<path d="M4965 2320 c-13 -6 -15 -9 -5 -9 8 0 22 4 30 9 18 12 2 12 -25 0z"/>
<path d="M4948 2293 c6 -2 18 -2 25 0 6 3 1 5 -13 5 -14 0 -19 -2 -12 -5z"/>
<path d="M5080 2280 c-8 -5 -10 -10 -5 -10 6 0 1 -7 -10 -16 -17 -13 -18 -16
-5 -24 8 -5 22 -9 30 -9 11 0 10 2 -3 8 -17 6 -15 10 14 34 27 22 29 27 13 27
-10 0 -26 -5 -34 -10z"/>
<path d="M5000 2211 c0 -15 16 -22 35 -15 13 5 14 8 3 15 -18 12 -38 11 -38 0z"/>
<path d="M1720 1940 c0 -5 12 -10 26 -10 14 0 23 4 19 10 -3 6 -15 10 -26 10
-10 0 -19 -4 -19 -10z"/>
<path d="M1158 1633 c6 -2 18 -2 25 0 6 3 1 5 -13 5 -14 0 -19 -2 -12 -5z"/>
<path d="M2244 1411 c5 -8 56 -3 56 5 0 2 -14 4 -31 4 -16 0 -28 -4 -25 -9z"/>
<path d="M656 3165 c10 -8 26 -15 34 -15 12 -1 12 -3 -2 -14 -10 -7 -15 -16
-11 -19 3 -4 0 -7 -8 -7 -10 -1 -10 -3 3 -10 11 -7 26 -6 45 1 16 7 23 13 15
16 -10 4 -10 8 -1 19 9 11 8 14 -4 14 -8 0 -20 7 -27 15 -7 8 -24 15 -38 15
-25 0 -25 -1 -6 -15z"/>
<path d="M695 3080 c-18 -8 -17 -9 7 -9 15 -1 30 4 33 9 7 12 -12 12 -40 0z"/>
<path d="M4129 1243 c-10 -2 -16 -17 -18 -41 -1 -20 -3 -48 -4 -62 -1 -17 4
-26 17 -28 11 -3 16 0 12 7 -4 6 -3 11 3 11 16 0 46 63 32 68 -19 6 -12 28 12
40 21 10 21 11 -8 10 -16 0 -37 -2 -46 -5z"/>
<path d="M498 5973 c6 -2 18 -2 25 0 6 3 1 5 -13 5 -14 0 -19 -2 -12 -5z"/>
</g>
</svg>
